<mxfile host="app.diagrams.net" modified="2024-04-22T10:16:54.760Z" agent="Mozilla/5.0 (Windows NT 10.0; Win64; x64) AppleWebKit/537.36 (KHTML, like Gecko) Chrome/123.0.0.0 Safari/537.36" etag="U4Ajp7XQ6SSnjPSBR6pT" version="24.2.7" type="github">
  <diagram id="C5RBs43oDa-KdzZeNtuy" name="Page-1">
    <mxGraphModel dx="1941" dy="1769" grid="1" gridSize="10" guides="1" tooltips="1" connect="1" arrows="1" fold="1" page="1" pageScale="1" pageWidth="827" pageHeight="1169" math="0" shadow="0">
      <root>
        <mxCell id="WIyWlLk6GJQsqaUBKTNV-0" />
        <mxCell id="WIyWlLk6GJQsqaUBKTNV-1" parent="WIyWlLk6GJQsqaUBKTNV-0" />
        <mxCell id="WIyWlLk6GJQsqaUBKTNV-5" value="No" style="edgeStyle=orthogonalEdgeStyle;rounded=0;html=1;jettySize=auto;orthogonalLoop=1;fontSize=11;endArrow=block;endFill=0;endSize=8;strokeWidth=1;shadow=0;labelBackgroundColor=none;" parent="WIyWlLk6GJQsqaUBKTNV-1" source="WIyWlLk6GJQsqaUBKTNV-6" target="WIyWlLk6GJQsqaUBKTNV-7" edge="1">
          <mxGeometry y="10" relative="1" as="geometry">
            <mxPoint as="offset" />
          </mxGeometry>
        </mxCell>
        <mxCell id="cPglAcdEaWID_TBuZnTD-11" value="" style="edgeStyle=orthogonalEdgeStyle;rounded=0;orthogonalLoop=1;jettySize=auto;html=1;" edge="1" parent="WIyWlLk6GJQsqaUBKTNV-1" source="WIyWlLk6GJQsqaUBKTNV-6" target="cPglAcdEaWID_TBuZnTD-4">
          <mxGeometry relative="1" as="geometry" />
        </mxCell>
        <mxCell id="WIyWlLk6GJQsqaUBKTNV-6" value="Ã¨ Audiobook?" style="rhombus;whiteSpace=wrap;html=1;shadow=0;fontFamily=Helvetica;fontSize=12;align=center;strokeWidth=1;spacing=6;spacingTop=-4;" parent="WIyWlLk6GJQsqaUBKTNV-1" vertex="1">
          <mxGeometry x="160" y="430" width="130" height="80" as="geometry" />
        </mxCell>
        <mxCell id="cPglAcdEaWID_TBuZnTD-14" style="edgeStyle=orthogonalEdgeStyle;rounded=0;orthogonalLoop=1;jettySize=auto;html=1;" edge="1" parent="WIyWlLk6GJQsqaUBKTNV-1" source="WIyWlLk6GJQsqaUBKTNV-7" target="cPglAcdEaWID_TBuZnTD-12">
          <mxGeometry relative="1" as="geometry" />
        </mxCell>
        <mxCell id="WIyWlLk6GJQsqaUBKTNV-7" value="create new Book" style="rounded=1;whiteSpace=wrap;html=1;fontSize=12;glass=0;strokeWidth=1;shadow=0;" parent="WIyWlLk6GJQsqaUBKTNV-1" vertex="1">
          <mxGeometry x="320" y="190" width="120" height="40" as="geometry" />
        </mxCell>
        <mxCell id="cPglAcdEaWID_TBuZnTD-16" value="" style="edgeStyle=orthogonalEdgeStyle;rounded=0;orthogonalLoop=1;jettySize=auto;html=1;" edge="1" parent="WIyWlLk6GJQsqaUBKTNV-1" source="cPglAcdEaWID_TBuZnTD-4" target="cPglAcdEaWID_TBuZnTD-15">
          <mxGeometry relative="1" as="geometry" />
        </mxCell>
        <mxCell id="cPglAcdEaWID_TBuZnTD-4" value="create new Audiobook&lt;div&gt;&lt;br&gt;&lt;/div&gt;" style="rounded=1;whiteSpace=wrap;html=1;" vertex="1" parent="WIyWlLk6GJQsqaUBKTNV-1">
          <mxGeometry x="170" y="540" width="120" height="60" as="geometry" />
        </mxCell>
        <mxCell id="cPglAcdEaWID_TBuZnTD-8" value="yes" style="edgeStyle=orthogonalEdgeStyle;rounded=0;orthogonalLoop=1;jettySize=auto;html=1;entryX=0;entryY=0.5;entryDx=0;entryDy=0;" edge="1" parent="WIyWlLk6GJQsqaUBKTNV-1" source="cPglAcdEaWID_TBuZnTD-5" target="WIyWlLk6GJQsqaUBKTNV-6">
          <mxGeometry relative="1" as="geometry">
            <mxPoint x="20" y="280" as="targetPoint" />
            <Array as="points">
              <mxPoint x="230" y="230" />
              <mxPoint x="-20" y="230" />
              <mxPoint x="-20" y="300" />
              <mxPoint x="165" y="300" />
              <mxPoint x="165" y="470" />
            </Array>
          </mxGeometry>
        </mxCell>
        <mxCell id="cPglAcdEaWID_TBuZnTD-9" value="no" style="edgeStyle=orthogonalEdgeStyle;rounded=0;orthogonalLoop=1;jettySize=auto;html=1;entryX=0.5;entryY=0;entryDx=0;entryDy=0;" edge="1" parent="WIyWlLk6GJQsqaUBKTNV-1" source="cPglAcdEaWID_TBuZnTD-5" target="WIyWlLk6GJQsqaUBKTNV-6">
          <mxGeometry relative="1" as="geometry" />
        </mxCell>
        <mxCell id="cPglAcdEaWID_TBuZnTD-5" value="inserimento da file" style="rhombus;whiteSpace=wrap;html=1;shadow=0;fontFamily=Helvetica;fontSize=12;align=center;strokeWidth=1;spacing=6;spacingTop=-4;" vertex="1" parent="WIyWlLk6GJQsqaUBKTNV-1">
          <mxGeometry x="180" y="320" width="100" height="80" as="geometry" />
        </mxCell>
        <mxCell id="cPglAcdEaWID_TBuZnTD-12" value="Inseisci new&amp;nbsp; Book" style="rounded=0;whiteSpace=wrap;html=1;" vertex="1" parent="WIyWlLk6GJQsqaUBKTNV-1">
          <mxGeometry x="490" y="430" width="120" height="60" as="geometry" />
        </mxCell>
        <mxCell id="cPglAcdEaWID_TBuZnTD-44" style="edgeStyle=orthogonalEdgeStyle;rounded=0;orthogonalLoop=1;jettySize=auto;html=1;entryX=1;entryY=0.083;entryDx=0;entryDy=0;entryPerimeter=0;" edge="1" parent="WIyWlLk6GJQsqaUBKTNV-1">
          <mxGeometry relative="1" as="geometry">
            <mxPoint x="280" y="79.96000000000004" as="targetPoint" />
            <mxPoint x="310" y="770" as="sourcePoint" />
            <Array as="points">
              <mxPoint x="660" y="770" />
              <mxPoint x="660" y="470" />
              <mxPoint x="650" y="470" />
              <mxPoint x="650" y="80" />
            </Array>
          </mxGeometry>
        </mxCell>
        <mxCell id="cPglAcdEaWID_TBuZnTD-15" value="Inserisci new Audiobook" style="rounded=1;whiteSpace=wrap;html=1;" vertex="1" parent="WIyWlLk6GJQsqaUBKTNV-1">
          <mxGeometry x="190" y="740" width="120" height="60" as="geometry" />
        </mxCell>
        <mxCell id="cPglAcdEaWID_TBuZnTD-21" value="" style="edgeStyle=orthogonalEdgeStyle;rounded=0;orthogonalLoop=1;jettySize=auto;html=1;" edge="1" parent="WIyWlLk6GJQsqaUBKTNV-1" target="cPglAcdEaWID_TBuZnTD-17">
          <mxGeometry relative="1" as="geometry">
            <mxPoint x="210" y="50" as="sourcePoint" />
            <mxPoint x="210" y="140" as="targetPoint" />
            <Array as="points">
              <mxPoint x="210" y="10" />
              <mxPoint x="210" y="10" />
            </Array>
          </mxGeometry>
        </mxCell>
        <mxCell id="cPglAcdEaWID_TBuZnTD-17" value="List" style="swimlane;fontStyle=0;childLayout=stackLayout;horizontal=1;startSize=30;horizontalStack=0;resizeParent=1;resizeParentMax=0;resizeLast=0;collapsible=1;marginBottom=0;whiteSpace=wrap;html=1;" vertex="1" parent="WIyWlLk6GJQsqaUBKTNV-1">
          <mxGeometry x="140" y="60" width="140" height="150" as="geometry">
            <mxRectangle x="140" y="60" width="60" height="30" as="alternateBounds" />
          </mxGeometry>
        </mxCell>
        <mxCell id="cPglAcdEaWID_TBuZnTD-18" value="aggiungi&lt;span style=&quot;white-space: pre;&quot;&gt;&#x9;&lt;/span&gt;" style="text;strokeColor=none;fillColor=none;align=left;verticalAlign=middle;spacingLeft=4;spacingRight=4;overflow=hidden;points=[[0,0.5],[1,0.5]];portConstraint=eastwest;rotatable=0;whiteSpace=wrap;html=1;" vertex="1" parent="cPglAcdEaWID_TBuZnTD-17">
          <mxGeometry y="30" width="140" height="30" as="geometry" />
        </mxCell>
        <mxCell id="cPglAcdEaWID_TBuZnTD-23" value="rimuovi" style="text;strokeColor=none;fillColor=none;align=left;verticalAlign=middle;spacingLeft=4;spacingRight=4;overflow=hidden;points=[[0,0.5],[1,0.5]];portConstraint=eastwest;rotatable=0;whiteSpace=wrap;html=1;" vertex="1" parent="cPglAcdEaWID_TBuZnTD-17">
          <mxGeometry y="60" width="140" height="30" as="geometry" />
        </mxCell>
        <mxCell id="cPglAcdEaWID_TBuZnTD-20" value="Leggere" style="text;strokeColor=none;fillColor=none;align=left;verticalAlign=top;spacingLeft=4;spacingRight=4;overflow=hidden;points=[[0,0.5],[1,0.5]];portConstraint=eastwest;rotatable=0;whiteSpace=wrap;html=1;" vertex="1" parent="cPglAcdEaWID_TBuZnTD-17">
          <mxGeometry y="90" width="140" height="30" as="geometry" />
        </mxCell>
        <mxCell id="cPglAcdEaWID_TBuZnTD-60" value="Uscire" style="text;strokeColor=none;fillColor=none;align=left;verticalAlign=top;spacingLeft=4;spacingRight=4;overflow=hidden;points=[[0,0.5],[1,0.5]];portConstraint=eastwest;rotatable=0;whiteSpace=wrap;html=1;" vertex="1" parent="cPglAcdEaWID_TBuZnTD-17">
          <mxGeometry y="120" width="140" height="30" as="geometry" />
        </mxCell>
        <mxCell id="cPglAcdEaWID_TBuZnTD-22" style="edgeStyle=orthogonalEdgeStyle;rounded=0;orthogonalLoop=1;jettySize=auto;html=1;" edge="1" parent="WIyWlLk6GJQsqaUBKTNV-1" source="cPglAcdEaWID_TBuZnTD-18" target="cPglAcdEaWID_TBuZnTD-5">
          <mxGeometry relative="1" as="geometry" />
        </mxCell>
        <mxCell id="cPglAcdEaWID_TBuZnTD-25" value="rimuovi volume" style="rounded=0;whiteSpace=wrap;html=1;" vertex="1" parent="WIyWlLk6GJQsqaUBKTNV-1">
          <mxGeometry x="-280" y="180" width="120" height="60" as="geometry" />
        </mxCell>
        <mxCell id="cPglAcdEaWID_TBuZnTD-24" style="edgeStyle=orthogonalEdgeStyle;rounded=0;orthogonalLoop=1;jettySize=auto;html=1;" edge="1" parent="WIyWlLk6GJQsqaUBKTNV-1" source="cPglAcdEaWID_TBuZnTD-23" target="cPglAcdEaWID_TBuZnTD-25">
          <mxGeometry relative="1" as="geometry">
            <mxPoint x="-220" y="210" as="targetPoint" />
          </mxGeometry>
        </mxCell>
        <mxCell id="cPglAcdEaWID_TBuZnTD-26" style="edgeStyle=orthogonalEdgeStyle;rounded=0;orthogonalLoop=1;jettySize=auto;html=1;" edge="1" parent="WIyWlLk6GJQsqaUBKTNV-1" source="cPglAcdEaWID_TBuZnTD-20">
          <mxGeometry relative="1" as="geometry">
            <mxPoint x="-130" y="410" as="targetPoint" />
          </mxGeometry>
        </mxCell>
        <mxCell id="cPglAcdEaWID_TBuZnTD-29" style="edgeStyle=orthogonalEdgeStyle;rounded=0;orthogonalLoop=1;jettySize=auto;html=1;" edge="1" parent="WIyWlLk6GJQsqaUBKTNV-1" source="cPglAcdEaWID_TBuZnTD-28">
          <mxGeometry relative="1" as="geometry">
            <mxPoint x="-20" y="550" as="targetPoint" />
          </mxGeometry>
        </mxCell>
        <mxCell id="cPglAcdEaWID_TBuZnTD-30" style="edgeStyle=orthogonalEdgeStyle;rounded=0;orthogonalLoop=1;jettySize=auto;html=1;" edge="1" parent="WIyWlLk6GJQsqaUBKTNV-1" source="cPglAcdEaWID_TBuZnTD-28">
          <mxGeometry relative="1" as="geometry">
            <mxPoint x="-210" y="560" as="targetPoint" />
          </mxGeometry>
        </mxCell>
        <mxCell id="cPglAcdEaWID_TBuZnTD-28" value="Ã¨ Audiobook?" style="rhombus;whiteSpace=wrap;html=1;shadow=0;fontFamily=Helvetica;fontSize=12;align=center;strokeWidth=1;spacing=6;spacingTop=-4;" vertex="1" parent="WIyWlLk6GJQsqaUBKTNV-1">
          <mxGeometry x="-190" y="410" width="130" height="80" as="geometry" />
        </mxCell>
        <mxCell id="cPglAcdEaWID_TBuZnTD-35" value="Inizio" style="ellipse;whiteSpace=wrap;html=1;" vertex="1" parent="WIyWlLk6GJQsqaUBKTNV-1">
          <mxGeometry x="150" y="-70" width="120" height="80" as="geometry" />
        </mxCell>
        <mxCell id="cPglAcdEaWID_TBuZnTD-54" style="edgeStyle=orthogonalEdgeStyle;rounded=0;orthogonalLoop=1;jettySize=auto;html=1;entryX=-0.043;entryY=-0.033;entryDx=0;entryDy=0;entryPerimeter=0;" edge="1" parent="WIyWlLk6GJQsqaUBKTNV-1" source="cPglAcdEaWID_TBuZnTD-39" target="cPglAcdEaWID_TBuZnTD-23">
          <mxGeometry relative="1" as="geometry">
            <mxPoint x="-350" y="680" as="targetPoint" />
            <Array as="points">
              <mxPoint x="-160" y="110" />
              <mxPoint x="130" y="110" />
              <mxPoint x="130" y="120" />
            </Array>
          </mxGeometry>
        </mxCell>
        <mxCell id="cPglAcdEaWID_TBuZnTD-39" value="dimmi pure la durata" style="rounded=0;whiteSpace=wrap;html=1;" vertex="1" parent="WIyWlLk6GJQsqaUBKTNV-1">
          <mxGeometry x="-220" y="560" width="120" height="60" as="geometry" />
        </mxCell>
        <mxCell id="cPglAcdEaWID_TBuZnTD-52" style="edgeStyle=orthogonalEdgeStyle;rounded=0;orthogonalLoop=1;jettySize=auto;html=1;" edge="1" parent="WIyWlLk6GJQsqaUBKTNV-1">
          <mxGeometry relative="1" as="geometry">
            <mxPoint x="20" y="605" as="sourcePoint" />
            <mxPoint x="290" y="150" as="targetPoint" />
            <Array as="points">
              <mxPoint x="20" y="907" />
              <mxPoint x="310" y="907" />
            </Array>
          </mxGeometry>
        </mxCell>
        <mxCell id="cPglAcdEaWID_TBuZnTD-40" value="dimmi solo titolo,autore,Id" style="rounded=0;whiteSpace=wrap;html=1;" vertex="1" parent="WIyWlLk6GJQsqaUBKTNV-1">
          <mxGeometry x="-70" y="550" width="120" height="60" as="geometry" />
        </mxCell>
        <mxCell id="cPglAcdEaWID_TBuZnTD-48" style="edgeStyle=orthogonalEdgeStyle;rounded=0;orthogonalLoop=1;jettySize=auto;html=1;entryX=0.993;entryY=0.133;entryDx=0;entryDy=0;entryPerimeter=0;" edge="1" parent="WIyWlLk6GJQsqaUBKTNV-1" source="cPglAcdEaWID_TBuZnTD-12" target="cPglAcdEaWID_TBuZnTD-18">
          <mxGeometry relative="1" as="geometry">
            <mxPoint x="290" y="105" as="targetPoint" />
            <Array as="points">
              <mxPoint x="660" y="460" />
              <mxPoint x="660" y="105" />
            </Array>
          </mxGeometry>
        </mxCell>
        <mxCell id="cPglAcdEaWID_TBuZnTD-50" style="edgeStyle=orthogonalEdgeStyle;rounded=0;orthogonalLoop=1;jettySize=auto;html=1;entryX=0.5;entryY=0;entryDx=0;entryDy=0;" edge="1" parent="WIyWlLk6GJQsqaUBKTNV-1" source="cPglAcdEaWID_TBuZnTD-49" target="cPglAcdEaWID_TBuZnTD-35">
          <mxGeometry relative="1" as="geometry" />
        </mxCell>
        <mxCell id="cPglAcdEaWID_TBuZnTD-49" value="Actor" style="shape=umlActor;verticalLabelPosition=bottom;verticalAlign=top;html=1;outlineConnect=0;" vertex="1" parent="WIyWlLk6GJQsqaUBKTNV-1">
          <mxGeometry x="195" y="-250" width="30" height="60" as="geometry" />
        </mxCell>
        <mxCell id="cPglAcdEaWID_TBuZnTD-53" style="edgeStyle=orthogonalEdgeStyle;rounded=0;orthogonalLoop=1;jettySize=auto;html=1;entryX=0.007;entryY=0.175;entryDx=0;entryDy=0;entryPerimeter=0;" edge="1" parent="WIyWlLk6GJQsqaUBKTNV-1" source="cPglAcdEaWID_TBuZnTD-25" target="cPglAcdEaWID_TBuZnTD-17">
          <mxGeometry relative="1" as="geometry" />
        </mxCell>
        <mxCell id="cPglAcdEaWID_TBuZnTD-62" value="esci" style="ellipse;whiteSpace=wrap;html=1;" vertex="1" parent="WIyWlLk6GJQsqaUBKTNV-1">
          <mxGeometry x="310" y="953" width="120" height="80" as="geometry" />
        </mxCell>
        <mxCell id="cPglAcdEaWID_TBuZnTD-61" style="edgeStyle=orthogonalEdgeStyle;rounded=0;orthogonalLoop=1;jettySize=auto;html=1;" edge="1" parent="WIyWlLk6GJQsqaUBKTNV-1" source="cPglAcdEaWID_TBuZnTD-60" target="cPglAcdEaWID_TBuZnTD-62">
          <mxGeometry relative="1" as="geometry">
            <mxPoint x="370" y="993" as="targetPoint" />
          </mxGeometry>
        </mxCell>
      </root>
    </mxGraphModel>
  </diagram>
</mxfile>
